<svg width="48" height="48" viewBox="0 0 48 48" fill="none" xmlns="http://www.w3.org/2000/svg">
<path d="M38.625 2.25H9.375C5.02576 2.25 1.5 5.77576 1.5 10.125V37.875C1.5 42.2242 5.02576 45.75 9.375 45.75H38.625C42.9742 45.75 46.5 42.2242 46.5 37.875V10.125C46.5 5.77576 42.9742 2.25 38.625 2.25Z" fill="#001E36"/>
<path d="M10.8751 34.29V13.875C10.8714 13.8465 10.8743 13.8176 10.8836 13.7905C10.8928 13.7633 10.9082 13.7387 10.9285 13.7184C10.9487 13.6981 10.9734 13.6827 11.0006 13.6735C11.0277 13.6642 11.0566 13.6613 11.0851 13.665C12.6057 13.6256 14.4001 13.5 16.7401 13.5C19.5001 13.5 21.5251 14.0756 22.8151 15.315C23.4418 15.9014 23.938 16.6131 24.2714 17.404C24.6047 18.1948 24.7679 19.047 24.7501 19.905C24.7501 22.1663 23.9501 23.8462 22.3501 24.945C20.7501 26.0437 18.7376 26.5938 16.3126 26.595L14.6251 26.625V34.26C14.6298 34.2926 14.6268 34.3259 14.6164 34.3571C14.606 34.3884 14.5885 34.4168 14.5652 34.4401C14.5419 34.4634 14.5135 34.481 14.4822 34.4914C14.451 34.5018 14.4177 34.5047 14.3851 34.5H11.1151C10.9557 34.5 10.8751 34.4306 10.8751 34.29ZM14.6251 16.4288V23.8125C14.6251 23.8125 15.4801 23.7788 16.5001 23.7788C17.8413 23.7788 18.9263 23.4838 19.7551 22.8938C20.5838 22.3038 20.9988 21.3375 21.0001 19.995C21.0001 18.815 20.6351 17.905 19.9051 17.265C19.1751 16.625 18.1201 16.3075 16.7401 16.3125C16.4007 16.3125 16.0651 16.3125 15.7351 16.3275C15.4051 16.3425 15.1351 16.3425 14.9251 16.3425C14.7151 16.3425 14.6026 16.335 14.6251 16.4288ZM37.1251 29.625C37.1251 31.9219 35.6251 33 35.6251 33V32.9888C35.5351 33.0769 35.4376 33.1594 35.342 33.24C34.3095 34.08 32.9138 34.5 31.1551 34.5C29.3963 34.5 27.9588 34.1763 26.8426 33.5288C26.7809 33.5073 26.7285 33.4651 26.6943 33.4094C26.6601 33.3537 26.6463 33.2879 26.6551 33.2231V30.3975C26.6523 30.3656 26.6577 30.3335 26.6708 30.3043C26.684 30.2751 26.7044 30.2497 26.7301 30.2306C26.7504 30.2159 26.7755 30.2094 26.8005 30.2121C26.8254 30.2149 26.8484 30.2268 26.8651 30.2456C28.055 31.1806 29.5218 31.6937 31.0351 31.7044C31.7338 31.7044 32.2688 31.5794 32.6401 31.3294C32.8112 31.2273 32.953 31.0826 33.0516 30.9095C33.1502 30.7363 33.2022 30.5405 33.2026 30.3413C33.2066 30.1401 33.1687 29.9404 33.0912 29.7548C33.0137 29.5691 32.8984 29.4017 32.7526 29.2631C32.4526 28.9681 31.8626 28.6488 30.9826 28.305C29.3813 27.68 28.2663 27.0062 27.6376 26.2837C26.9721 25.5598 26.6097 24.6082 26.6251 23.625C26.6255 23.0134 26.7568 22.4089 27.0104 21.8523C27.264 21.2957 27.6338 20.7998 28.0951 20.3981C29.0338 19.5469 30.3738 19.1213 32.1151 19.1213C33.7401 19.1213 34.9901 19.3444 35.8651 19.7906C35.9645 19.8506 36.0151 19.9781 36.0151 20.1844V22.7063C36.0151 22.95 35.9251 23.01 35.7451 22.8938C34.702 22.2085 33.4831 21.8393 32.2351 21.8306C31.5338 21.8306 31.0201 21.9638 30.6901 22.2263C30.5399 22.3328 30.4169 22.4732 30.3309 22.636C30.2449 22.7989 30.1984 22.9796 30.1951 23.1638C30.1945 23.3439 30.2316 23.5222 30.3039 23.6872C30.3762 23.8521 30.4822 24.0002 30.6151 24.1219C30.8951 24.3956 31.4851 24.7144 32.3851 25.0781C33.9551 25.6919 35.0801 26.3369 35.7601 27.0131L35.777 27.03C36.4763 27.6731 37.1251 28.5581 37.1251 29.625Z" fill="#31A8FF"/>
</svg>
