<svg width="45" height="43" viewBox="0 0 45 43" fill="none" xmlns="http://www.w3.org/2000/svg">
<g clip-path="url(#clip0_131_1312)">
<path d="M7.96875 0H37.0312C41.4375 0 45 3.49145 45 7.80983V35.1902C45 39.5085 41.4375 43 37.0312 43H7.96875C3.5625 43 0 39.5085 0 35.1902V7.80983C0 3.49145 3.5625 0 7.96875 0Z" fill="#00005B"/>
<path d="M18.0749 25.7265H11.0999L9.67494 30.0632C9.63744 30.2286 9.48744 30.3389 9.31869 30.3205H5.79369C5.58744 30.3205 5.53119 30.2103 5.58744 29.9897L11.6249 13.0286C11.6812 12.8449 11.7374 12.6795 11.8124 12.459C11.8874 12.0731 11.9249 11.6688 11.9249 11.2645C11.9062 11.1726 11.9812 11.0808 12.0749 11.0624H16.9312C17.0624 11.0624 17.1562 11.1175 17.1749 11.2094L24.0187 30.0449C24.0749 30.247 24.0187 30.3389 23.8312 30.3389H19.9124C19.7812 30.3573 19.6499 30.2654 19.6124 30.1368L18.0749 25.7265V25.7265ZM12.1874 22.0697H16.9499C16.8374 21.6838 16.6874 21.2244 16.5187 20.7466C16.3499 20.2504 16.1812 19.7175 16.0124 19.1662C15.8249 18.5966 15.6562 18.0453 15.4687 17.4756C15.2812 16.906 15.1124 16.3731 14.9624 15.8402C14.8124 15.3256 14.6812 14.8479 14.5499 14.4068H14.5124C14.3437 15.197 14.1374 15.9872 13.8749 16.7774C13.5937 17.6594 13.3124 18.5782 13.0124 19.497C12.7687 20.4342 12.4687 21.2979 12.1874 22.0697V22.0697ZM35.1374 24.0359H29.1937C29.2687 24.6056 29.4562 25.1752 29.7749 25.6714C30.1124 26.1675 30.5812 26.5534 31.1437 26.7739C31.8937 27.0863 32.7187 27.2517 33.5437 27.2333C34.1999 27.215 34.8562 27.1598 35.4937 27.0312C36.0749 26.9577 36.6374 26.8107 37.1624 26.6085C37.2562 26.535 37.3124 26.5718 37.3124 26.7556V29.5671C37.3124 29.6406 37.2937 29.7141 37.2749 29.7876C37.2374 29.8427 37.1999 29.8795 37.1437 29.9162C36.5437 30.1735 35.9249 30.3573 35.2687 30.4675C34.3874 30.6329 33.5062 30.7064 32.6062 30.688C31.1812 30.688 29.9812 30.4675 29.0062 30.0449C28.0874 29.659 27.2812 29.0526 26.6437 28.2991C26.0437 27.5825 25.6124 26.7739 25.3499 25.8919C25.0874 25.0282 24.9562 24.1278 24.9562 23.209C24.9562 22.2167 25.1062 21.2427 25.4249 20.2872C25.7249 19.3684 26.1937 18.5231 26.8312 17.7697C27.4499 17.0346 28.2187 16.4466 29.0999 16.0239C29.9812 15.6013 31.0312 15.4543 32.2312 15.4543C33.2249 15.4359 34.2187 15.6197 35.1374 16.0239C35.9062 16.3547 36.5812 16.8509 37.1062 17.494C37.5937 18.1188 37.9874 18.8171 38.2312 19.5889C38.4749 20.3239 38.5874 21.0774 38.5874 21.8308C38.5874 22.2718 38.5687 22.6577 38.5499 23.0068C38.5124 23.356 38.4937 23.6132 38.4749 23.7786C38.4562 23.9073 38.3437 24.0175 38.2124 24.0175C38.0999 24.0175 37.8937 24.0359 37.5937 24.0543C37.2937 24.091 36.9374 24.1094 36.5062 24.1094C36.0749 24.1094 35.6249 24.0359 35.1374 24.0359V24.0359ZM29.1937 21.353H33.1499C33.6374 21.353 33.9937 21.353 34.2187 21.3346C34.3687 21.3162 34.5187 21.2795 34.6499 21.1876V21.0038C34.6499 20.765 34.6124 20.5444 34.5374 20.3239C34.1999 19.2949 33.2062 18.5966 32.0999 18.6333C31.0687 18.5782 30.0937 19.1111 29.6062 20.0299C29.3812 20.4526 29.2499 20.8936 29.1937 21.353Z" fill="#9999FF"/>
</g>
<defs>
<clipPath id="clip0_131_1312">
<rect width="45" height="43" fill="white"/>
</clipPath>
</defs>
</svg>
