<svg width="48" height="48" viewBox="0 0 48 48" fill="none" xmlns="http://www.w3.org/2000/svg">
<path d="M38.625 2.25H9.375C5.02576 2.25 1.5 5.77576 1.5 10.125V37.875C1.5 42.2242 5.02576 45.75 9.375 45.75H38.625C42.9742 45.75 46.5 42.2242 46.5 37.875V10.125C46.5 5.77576 42.9742 2.25 38.625 2.25Z" fill="#470137"/>
<path d="M24.632 14.5575L19.097 24.0675L25.0613 34.1925C25.1832 34.3988 25.1307 34.5 24.9076 34.5H21.1876C21.0955 34.5097 21.0026 34.4915 20.921 34.4477C20.8394 34.4039 20.7729 34.3365 20.7301 34.2544L16.532 26.5538H16.5001L12.4126 34.2544C12.375 34.3277 12.3181 34.3893 12.2481 34.4326C12.178 34.4759 12.0974 34.4992 12.0151 34.5H8.43759C8.23321 34.5 8.19384 34.3988 8.31571 34.1925L14.1807 24.345L8.59321 14.4956C8.47134 14.3325 8.51259 14.25 8.71509 14.25H12.4426C12.5225 14.2443 12.6024 14.2615 12.6728 14.2998C12.7433 14.338 12.8013 14.3955 12.8401 14.4656L16.7776 22.0744H16.8076L20.7245 14.4656C20.7631 14.3958 20.8208 14.3385 20.8909 14.3003C20.961 14.2621 21.0405 14.2446 21.1201 14.25H24.5101C24.7351 14.25 24.7745 14.3531 24.632 14.5575ZM33.7257 34.875C31.5507 34.875 29.8763 34.2581 28.577 33.0263C27.2776 31.7944 26.6251 29.9738 26.6251 27.5625C26.6251 25.3713 27.3238 23.5713 28.7213 22.1625C29.4364 21.4224 30.2962 20.8373 31.2471 20.4438C32.1981 20.0503 33.2198 19.8566 34.2488 19.875C34.7094 19.8668 35.1692 19.9159 35.6176 20.0213V13.6763C35.6142 13.6525 35.6164 13.6283 35.6239 13.6055C35.6314 13.5827 35.6441 13.5619 35.661 13.5448C35.6779 13.5278 35.6985 13.5148 35.7212 13.5071C35.744 13.4993 35.7682 13.4969 35.792 13.5H39.2195C39.3151 13.5 39.3638 13.5581 39.3638 13.6763V31.4419C39.3638 32.1919 39.6882 32.8313 39.7388 33.3788C39.7492 33.433 39.7402 33.4891 39.7135 33.5374C39.6868 33.5857 39.644 33.6231 39.5926 33.6431C37.9107 34.4644 35.7057 34.875 33.7257 34.875ZM35.6251 31.9706V22.9013C35.5032 22.6875 34.8582 22.5 34.1982 22.5C33.652 22.4858 33.1094 22.5938 32.6102 22.816C32.111 23.0382 31.6677 23.369 31.3126 23.7844C30.4478 24.7972 29.9813 26.0902 30.0001 27.4219C30.0001 29.0644 30.5626 30.1894 31.2957 30.9713C31.6422 31.3686 32.0691 31.6881 32.548 31.9085C33.027 32.1289 33.5472 32.2453 34.0745 32.25C34.7738 32.25 35.4582 32.145 35.6251 31.9706Z" fill="#FF61F6"/>
</svg>
