<svg width="48" height="48" viewBox="0 0 48 48" fill="none" xmlns="http://www.w3.org/2000/svg">
<path d="M38.625 2.25H9.375C5.02576 2.25 1.5 5.77576 1.5 10.125V37.875C1.5 42.2242 5.02576 45.75 9.375 45.75H38.625C42.9742 45.75 46.5 42.2242 46.5 37.875V10.125C46.5 5.77576 42.9742 2.25 38.625 2.25Z" fill="#00005B"/>
<path d="M11.2501 34.29V13.875C11.2464 13.8465 11.2493 13.8176 11.2586 13.7905C11.2678 13.7633 11.2832 13.7387 11.3035 13.7184C11.3237 13.6981 11.3484 13.6827 11.3756 13.6735C11.4027 13.6642 11.4316 13.6613 11.4601 13.665C12.9807 13.6256 14.7751 13.5 17.1151 13.5C19.8751 13.5 21.9001 14.0756 23.1901 15.315C23.8168 15.9014 24.313 16.6131 24.6464 17.404C24.9797 18.1948 25.1429 19.047 25.1251 19.905C25.1251 22.1663 24.3251 23.8462 22.7251 24.945C21.1251 26.0437 19.1126 26.5938 16.6876 26.595L15.0001 26.625V34.26C15.0048 34.2926 15.0018 34.3259 14.9914 34.3571C14.981 34.3884 14.9635 34.4168 14.9402 34.4401C14.9169 34.4634 14.8885 34.481 14.8572 34.4914C14.826 34.5018 14.7927 34.5047 14.7601 34.5H11.4901C11.3307 34.5 11.2501 34.4306 11.2501 34.29ZM15.0001 16.4288V23.8125C15.0001 23.8125 15.8551 23.7788 16.8751 23.7788C18.2163 23.7788 19.3013 23.4838 20.1301 22.8938C20.9588 22.3038 21.3738 21.3375 21.3751 19.995C21.3751 18.815 21.0101 17.905 20.2801 17.265C19.5501 16.625 18.4951 16.3075 17.1151 16.3125C16.7757 16.3125 16.4401 16.3125 16.1101 16.3275C15.7801 16.3425 15.5101 16.3425 15.3001 16.3425C15.0901 16.3425 14.9776 16.335 15.0001 16.4288ZM27.9376 19.5H31.1251C31.2019 19.4974 31.2773 19.5206 31.3395 19.5657C31.4017 19.6109 31.447 19.6755 31.4682 19.7494C31.707 20.2601 31.8452 20.812 31.8751 21.375C33.0788 19.8188 34.5601 19.125 36.5326 19.125C36.5623 19.1197 36.5929 19.1217 36.6217 19.1307C36.6505 19.1398 36.6767 19.1556 36.6981 19.177C36.7194 19.1984 36.7353 19.2246 36.7444 19.2534C36.7534 19.2822 36.7554 19.3128 36.7501 19.3425V22.6538C36.7501 22.8206 36.6676 22.8919 36.5007 22.8713C34.6951 22.7681 33.2626 23.0044 32.2257 24.0413C32.1214 24.1287 32.0363 24.2368 31.9759 24.3588C31.9156 24.4808 31.8812 24.614 31.8751 24.75V34.2825C31.8751 34.4269 31.7926 34.5 31.6257 34.5H28.4045C28.217 34.5 28.1251 34.4175 28.1251 34.2506V23.625C28.1251 21.1088 27.9376 20.7506 27.7501 19.7175C27.7295 19.5731 27.7913 19.5 27.9376 19.5Z" fill="#9999FF"/>
</svg>
