<svg width="34" height="48" viewBox="0 0 34 48" fill="none" xmlns="http://www.w3.org/2000/svg">
<g clip-path="url(#clip0_131_1353)">
<path d="M26.4626 2.196H23.6936L26.5733 5.32087V6.8085H20.6423V5.06662H23.5215L20.6423 1.94175V0.452621H26.4626V2.196V2.196ZM19.4663 2.196H16.6973L19.5769 5.32087V6.8085H13.6455V5.06662H16.5251L13.6455 1.94175V0.452621H19.4663V2.196V2.196ZM12.5385 2.26725H9.55051V4.99387H12.5385V6.8085H7.42651V0.452621H12.5385V2.26725V2.26725Z" fill="#131313"/>
<path d="M3.35498 43.7647L0.318604 9.70987H33.6812L30.6422 43.7591L16.9795 47.5474L3.35498 43.7647V43.7647Z" fill="#1572B6"/>
<path d="M17.0005 44.652L28.0401 41.5913L30.6374 12.4946H17.0005V44.652Z" fill="#33A9DC"/>
<path d="M17 24.8325H22.5267L22.9089 20.5556H17V16.3789H27.4734L27.3733 17.4994L26.3469 29.0089H17V24.8325V24.8325Z" fill="white"/>
<path d="M17.0252 35.6798L17.0069 35.685L12.3554 34.4287L12.0576 31.0976H7.86548L8.45085 37.6556L17.0061 40.0305L17.0256 40.0249V35.6798H17.0252Z" fill="#EBEBEB"/>
<path d="M22.172 28.8322L21.6687 34.4257L17.0105 35.6831V40.0286L25.5729 37.6556L25.6359 36.9499L26.3626 28.8322H22.172V28.8322Z" fill="white"/>
<path d="M17.0146 16.3789V20.5553H6.92601L6.84201 19.6166L6.65188 17.4994L6.55176 16.3789H17.0146ZM17 24.8329V29.0096H12.4074L12.3238 28.071L12.1333 25.9534L12.0331 24.8329H17V24.8329Z" fill="#EBEBEB"/>
</g>
<defs>
<clipPath id="clip0_131_1353">
<rect width="34" height="48" fill="white"/>
</clipPath>
</defs>
</svg>
