<svg width="32" height="32" viewBox="0 0 32 32" fill="none" xmlns="http://www.w3.org/2000/svg">
<path d="M16.0001 2.66666C13.363 2.66666 10.7851 3.44864 8.59248 4.91373C6.39983 6.37881 4.69086 8.4612 3.68169 10.8975C2.67253 13.3339 2.40848 16.0148 2.92295 18.6012C3.43742 21.1876 4.7073 23.5634 6.572 25.4281C8.4367 27.2928 10.8125 28.5627 13.3989 29.0771C15.9853 29.5916 18.6662 29.3276 21.1025 28.3184C23.5389 27.3092 25.6213 25.6002 27.0863 23.4076C28.5514 21.2149 29.3334 18.6371 29.3334 16C29.3334 14.249 28.9885 12.5152 28.3185 10.8975C27.6484 9.27987 26.6663 7.81001 25.4282 6.5719C24.1901 5.33378 22.7202 4.35166 21.1025 3.6816C19.4849 3.01153 17.751 2.66666 16.0001 2.66666V2.66666ZM16.0001 5.33332C18.7397 5.33223 21.3731 6.39323 23.3468 8.29332C21.3095 9.48826 19.1506 10.4626 16.9068 11.2C15.7901 9.27576 14.5098 7.45124 13.0801 5.74666C14.0294 5.47332 15.0122 5.33419 16.0001 5.33332V5.33332ZM10.5201 6.86666C11.917 8.46466 13.1707 10.1824 14.2668 12C11.6496 12.6499 8.96343 12.9812 6.26675 12.9867H5.78675C6.54302 10.4262 8.232 8.2424 10.5201 6.86666V6.86666ZM8.00009 23.08C6.26509 21.1317 5.31486 18.6088 5.33342 16C5.33342 15.8667 5.33342 15.7333 5.33342 15.6133H6.24009C9.39659 15.5851 12.5353 15.1367 15.5734 14.28C16.0001 15.0933 16.4001 15.9333 16.7868 16.8C14.7087 17.5326 12.7734 18.6198 11.0668 20.0133L10.6668 20.3333C9.71624 21.187 8.82527 22.1047 8.00009 23.08V23.08ZM16.0001 26.6667C13.8749 26.6714 11.7977 26.0347 10.0401 24.84C10.6892 24.0954 11.3839 23.3919 12.1201 22.7333L12.5468 22.3733C14.1243 21.0465 15.9321 20.0206 17.8801 19.3467C18.6819 21.5146 19.3061 23.7442 19.7468 26.0133C18.5465 26.4516 17.2778 26.6728 16.0001 26.6667V26.6667ZM22.1734 24.68C21.7372 22.6621 21.167 20.6755 20.4668 18.7333H20.9201C20.9726 18.7203 21.0275 18.7203 21.0801 18.7333H21.2268H21.3601H22.0001C23.4032 18.7373 24.7958 18.9762 26.1201 19.44C25.3925 21.5605 24.0106 23.3953 22.1734 24.68V24.68ZM22.0001 16C21.7201 16 21.4401 16 21.1734 16C21.0008 15.9782 20.8261 15.9782 20.6534 16C20.291 16.0222 19.9303 16.0668 19.5734 16.1333H19.4401C19.0534 15.24 18.6534 14.3733 18.2134 13.4667C20.6009 12.6467 22.8939 11.574 25.0534 10.2667C26.1247 11.9858 26.6843 13.9745 26.6668 16C26.6668 16.2267 26.6668 16.4533 26.6668 16.68C25.1557 16.2136 23.5814 15.9842 22.0001 16V16Z" fill="#121212"/>
</svg>
