<svg width="32" height="32" viewBox="0 0 32 32" fill="none" xmlns="http://www.w3.org/2000/svg">
<path d="M27.8667 2.66666H4.13341C3.74443 2.66666 3.37138 2.82118 3.09632 3.09623C2.82127 3.37129 2.66675 3.74434 2.66675 4.13332V27.8667C2.66675 28.0593 2.70468 28.25 2.77839 28.4279C2.8521 28.6059 2.96013 28.7676 3.09632 28.9037C3.23252 29.0399 3.3942 29.148 3.57215 29.2217C3.75009 29.2954 3.94081 29.3333 4.13341 29.3333H16.9067V19H13.4401V15H16.9067V12C16.8349 11.2957 16.9181 10.5842 17.1504 9.91537C17.3826 9.24659 17.7584 8.63672 18.2514 8.12854C18.7443 7.62036 19.3424 7.22618 20.0038 6.97364C20.6653 6.7211 21.3739 6.61633 22.0801 6.66666C23.1178 6.66027 24.1551 6.71369 25.1867 6.82666V10.4267H23.0667C21.3867 10.4267 21.0667 11.2267 21.0667 12.3867V14.96H25.0667L24.5467 18.96H21.0667V29.3333H27.8667C28.0594 29.3333 28.2501 29.2954 28.428 29.2217C28.606 29.148 28.7676 29.0399 28.9038 28.9037C29.04 28.7676 29.1481 28.6059 29.2218 28.4279C29.2955 28.25 29.3334 28.0593 29.3334 27.8667V4.13332C29.3334 3.94072 29.2955 3.75 29.2218 3.57205C29.1481 3.39411 29.04 3.23243 28.9038 3.09623C28.7676 2.96004 28.606 2.85201 28.428 2.7783C28.2501 2.70459 28.0594 2.66666 27.8667 2.66666V2.66666Z" fill="#121212"/>
</svg>
