<svg width="48" height="48" viewBox="0 0 48 48" fill="none" xmlns="http://www.w3.org/2000/svg">
<g clip-path="url(#clip0_131_1327)">
<path d="M0 24C0 10.745 10.745 0 24 0C37.255 0 48 10.745 48 24C48 37.255 37.255 48 24 48C10.745 48 0 37.255 0 24Z" fill="#333333"/>
<path d="M19.2 38.4C20.4731 38.4 21.694 37.8943 22.5941 36.9941C23.4943 36.0939 24 34.873 24 33.6V28.8H19.2C17.927 28.8 16.7061 29.3057 15.8059 30.2059C14.9057 31.1061 14.4 32.327 14.4 33.6C14.4 34.873 14.9057 36.0939 15.8059 36.9941C16.7061 37.8943 17.927 38.4 19.2 38.4V38.4Z" fill="#0ACF83"/>
<path d="M14.4 24C14.4 22.727 14.9057 21.5061 15.8059 20.6059C16.7061 19.7057 17.927 19.2 19.2 19.2H24V28.8H19.2C18.5697 28.8 17.9455 28.6758 17.3631 28.4346C16.7808 28.1934 16.2516 27.8398 15.8059 27.3941C15.3602 26.9484 15.0066 26.4192 14.7654 25.8369C14.5242 25.2545 14.4 24.6303 14.4 24V24Z" fill="#A259FF"/>
<path d="M14.4 14.4C14.4 13.127 14.9057 11.9061 15.8059 11.0059C16.7061 10.1057 17.927 9.60001 19.2 9.60001H24V19.2H19.2C17.927 19.2 16.7061 18.6943 15.8059 17.7941C14.9057 16.8939 14.4 15.673 14.4 14.4V14.4Z" fill="#F24E1E"/>
<path d="M24 9.60001H28.8C30.073 9.60001 31.2939 10.1057 32.1941 11.0059C33.0943 11.9061 33.6 13.127 33.6 14.4C33.6 15.673 33.0943 16.8939 32.1941 17.7941C31.2939 18.6943 30.073 19.2 28.8 19.2H24V9.60001Z" fill="#FF7262"/>
<path d="M33.6 24C33.6 25.273 33.0943 26.4939 32.1941 27.3941C31.2939 28.2943 30.073 28.8 28.8 28.8C27.527 28.8 26.3061 28.2943 25.4059 27.3941C24.5057 26.4939 24 25.273 24 24C24 22.727 24.5057 21.5061 25.4059 20.6059C26.3061 19.7057 27.527 19.2 28.8 19.2C30.073 19.2 31.2939 19.7057 32.1941 20.6059C33.0943 21.5061 33.6 22.727 33.6 24Z" fill="#1ABCFE"/>
</g>
<defs>
<clipPath id="clip0_131_1327">
<rect width="48" height="48" fill="white"/>
</clipPath>
</defs>
</svg>
