<svg width="34" height="48" viewBox="0 0 34 48" fill="none" xmlns="http://www.w3.org/2000/svg">
<g clip-path="url(#clip0_131_1347)">
<path d="M3.44532 43.6327L0.429199 9.80362H33.571L30.5518 43.6275L16.9798 47.3899L3.44532 43.6327Z" fill="#E44D26"/>
<path d="M17 44.514L27.9665 41.4735L30.5469 12.57H17V44.514Z" fill="#F16529"/>
<path d="M17.0001 25.1168H11.5097L11.1309 20.8676H17.0001V16.7186H6.59644L6.69544 17.832L7.71544 29.2654H17.0001V25.1168ZM17.0001 35.8916L16.9817 35.8965L12.3613 34.6485L12.0658 31.3399H7.90069L8.48194 37.8544L16.9809 40.2139L17.0001 40.2083V35.8916Z" fill="#EBEBEB"/>
<path d="M3.5127 0.610123H5.62094V2.69362H7.54994V0.610123H9.65857V6.91837H7.54994V4.806H5.62132V6.91837H3.5127V0.610123V0.610123ZM12.4309 2.70225H10.5747V0.610123H16.3966V2.70225H14.5396V6.91837H12.4309V2.70225V2.70225ZM17.3206 0.610123H19.5188L20.8714 2.82675L22.2226 0.610123H24.4219V6.91837H22.3216V3.79162L20.8714 6.0345H20.8347L19.3834 3.79162V6.91837H17.3202V0.610123H17.3206ZM25.4716 0.610123H27.5806V4.83337H30.5457V6.91875H25.4716V0.610123V0.610123Z" fill="black"/>
<path d="M16.9858 25.1168V29.2654H22.0948L21.6133 34.6463L16.9858 35.8954V40.2116L25.4916 37.8544L25.5538 37.1531L26.5288 26.2305L26.6301 25.1168H25.5118H16.9858ZM16.9858 16.7186V20.8676H27.0077L27.0906 19.935L27.28 17.832L27.3793 16.7186H16.9858Z" fill="white"/>
</g>
<defs>
<clipPath id="clip0_131_1347">
<rect width="34" height="48" fill="white"/>
</clipPath>
</defs>
</svg>
