<svg width="48" height="48" viewBox="0 0 48 48" fill="none" xmlns="http://www.w3.org/2000/svg">
<path d="M19.7179 25.4314C19.7179 25.4314 18.4864 26.148 20.5957 26.3903C23.151 26.682 24.4571 26.64 27.2726 26.1079C27.2726 26.1079 28.0147 26.5718 29.0482 26.9738C22.7347 29.6786 14.7592 26.817 19.7179 25.4314ZM18.9457 21.9008C18.9457 21.9008 17.5642 22.9241 19.6751 23.1424C22.4051 23.424 24.5602 23.4473 28.2922 22.7288C28.2922 22.7288 28.8071 23.2523 29.6182 23.5376C21.9862 25.7704 13.4854 23.7135 18.9457 21.9008V21.9008Z" fill="#0074BD"/>
<path d="M25.4494 15.9116C27.006 17.7034 25.0414 19.3144 25.0414 19.3144C25.0414 19.3144 28.9912 17.2755 27.1774 14.7214C25.4827 12.3405 24.1841 11.1581 31.2165 7.07962C31.2169 7.07962 20.1772 9.83587 25.4494 15.9116Z" fill="#EA2D2E"/>
<path d="M33.7994 28.0429C33.7994 28.0429 34.7114 28.7947 32.7952 29.376C29.1517 30.4796 17.6287 30.8126 14.4281 29.4199C13.2783 28.9192 15.4357 28.2247 16.1141 28.0789C16.8217 27.9255 17.2259 27.9536 17.2259 27.9536C15.9464 27.0525 8.95532 29.7232 13.6751 30.4894C26.5466 32.5755 37.1377 29.5496 33.7994 28.0429V28.0429ZM20.3107 18.2426C20.3107 18.2426 14.4498 19.635 18.2354 20.1412C19.8344 20.355 23.0197 20.3059 25.9889 20.0569C28.4148 19.8532 30.8493 19.4179 30.8493 19.4179C30.8493 19.4179 29.9947 19.7846 29.3756 20.2069C23.4228 21.7725 11.9257 21.0431 15.2358 19.4426C18.0344 18.0885 20.3107 18.2426 20.3107 18.2426V18.2426ZM30.8249 24.1189C36.8756 20.9756 34.0777 17.9546 32.1251 18.3615C31.6477 18.4612 31.4332 18.5475 31.4332 18.5475C31.4332 18.5475 31.6113 18.2685 31.9499 18.1489C35.8132 16.7914 38.7836 22.1542 30.7042 24.2782C30.7042 24.2782 30.7968 24.1942 30.8249 24.1189Z" fill="#0074BD"/>
<path d="M27.1777 0.492371C27.1777 0.492371 30.5284 3.8445 23.9992 8.99812C18.7635 13.1332 22.8052 15.4905 23.997 18.1849C20.9407 15.4271 18.699 12.9994 20.2027 10.7404C22.4111 7.42462 28.5292 5.81625 27.1777 0.492371V0.492371Z" fill="#EA2D2E"/>
<path d="M20.9059 32.6396C26.7124 33.0109 35.6318 32.433 35.8429 29.6854C35.8429 29.6854 35.4372 30.7267 31.0433 31.5532C26.0866 32.4862 19.9722 32.3779 16.3467 31.7794C16.3467 31.7794 17.0892 32.3944 20.9059 32.6396V32.6396Z" fill="#0074BD"/>
<path d="M35.5747 37.5679H35.3977V37.4689H35.874V37.5679H35.6977V38.0618H35.5743L35.5747 37.5679V37.5679ZM36.5253 37.5926H36.5231L36.3476 38.0618H36.2666L36.0922 37.5926H36.0903V38.0618H35.9733V37.4689H36.1447L36.3063 37.8885L36.4683 37.4689H36.6386V38.0618H36.5253V37.5926V37.5926ZM19.9541 43.1389C19.4066 43.6136 18.8276 43.8806 18.3075 43.8806C17.5672 43.8806 17.1656 43.4359 17.1656 42.7238C17.1656 41.9531 17.5953 41.3888 19.3173 41.3888H19.9537V43.1389H19.9541ZM21.4657 44.8444V39.5655C21.4657 38.2159 20.6958 37.3256 18.8418 37.3256C17.7596 37.3256 16.8108 37.5934 16.0395 37.9339L16.2615 38.8688C16.869 38.6456 17.6546 38.4386 18.4256 38.4386C19.4943 38.4386 19.9537 38.8688 19.9537 39.759V40.4261H19.4197C16.8243 40.4261 15.6532 41.433 15.6532 42.9473C15.6532 44.2519 16.425 44.9933 17.8781 44.9933C18.8118 44.9933 19.5097 44.6078 20.1611 44.0434L20.2796 44.8448H21.4657V44.8444V44.8444ZM26.5102 44.8444H24.6251L22.356 37.461H24.0026L25.4111 41.9981L25.7242 43.3613C26.4352 41.3895 26.9392 39.3878 27.1912 37.4614H28.7928C28.3642 39.8918 27.5917 42.5606 26.5102 44.8444ZM33.7432 43.1389C33.1938 43.6136 32.6145 43.8806 32.0962 43.8806C31.3552 43.8806 30.954 43.4359 30.954 42.7238C30.954 41.9531 31.3848 41.3888 33.105 41.3888H33.7428V43.1389H33.7432ZM35.2556 44.8444V39.5655C35.2556 38.2159 34.4835 37.3256 32.631 37.3256C31.5476 37.3256 30.5992 37.5934 29.8278 37.9339L30.0502 38.8688C30.6577 38.6456 31.4445 38.4386 32.2155 38.4386C33.2827 38.4386 33.7432 38.8688 33.7432 39.759V40.4261H33.2092C30.6131 40.4261 29.4423 41.433 29.4423 42.9473C29.4423 44.2519 30.2133 44.9933 31.6661 44.9933C32.6002 44.9933 33.297 44.6078 33.9502 44.0434L34.0695 44.8448H35.2556V44.8444V44.8444ZM13.9957 46.0991C13.5656 46.7288 12.8688 47.2271 12.1068 47.508L11.361 46.6286C11.9411 46.3309 12.438 45.8505 12.6693 45.4028C12.8688 45.0041 12.9517 44.4915 12.9517 43.2649V34.8341H14.5582V43.149C14.5582 44.7896 14.4277 45.453 13.9957 46.0991V46.0991Z" fill="#EA2D2E"/>
</svg>
