<svg width="32" height="32" viewBox="0 0 32 32" fill="none" xmlns="http://www.w3.org/2000/svg">
<path d="M27.2932 2.66666H4.70658C4.45269 2.66313 4.20058 2.70966 3.96467 2.80357C3.72876 2.89749 3.51365 3.03695 3.33165 3.21401C3.14964 3.39106 3.00429 3.60224 2.9039 3.83547C2.80352 4.06871 2.75006 4.31943 2.74658 4.57333V27.4267C2.75006 27.6806 2.80352 27.9313 2.9039 28.1645C3.00429 28.3977 3.14964 28.6089 3.33165 28.786C3.51365 28.963 3.72876 29.1025 3.96467 29.1964C4.20058 29.2903 4.45269 29.3369 4.70658 29.3333H27.2932C27.5471 29.3369 27.7992 29.2903 28.0352 29.1964C28.2711 29.1025 28.4862 28.963 28.6682 28.786C28.8502 28.6089 28.9955 28.3977 29.0959 28.1645C29.1963 27.9313 29.2498 27.6806 29.2533 27.4267V4.57333C29.2498 4.31943 29.1963 4.06871 29.0959 3.83547C28.9955 3.60224 28.8502 3.39106 28.6682 3.21401C28.4862 3.03695 28.2711 2.89749 28.0352 2.80357C27.7992 2.70966 27.5471 2.66313 27.2932 2.66666V2.66666ZM10.7866 24.9867H6.78658V12.9867H10.7866V24.9867ZM8.78658 11.3067C8.23493 11.3067 7.70588 11.0875 7.3158 10.6974C6.92572 10.3074 6.70658 9.77831 6.70658 9.22666C6.70658 8.67501 6.92572 8.14595 7.3158 7.75588C7.70588 7.3658 8.23493 7.14666 8.78658 7.14666C9.07951 7.11344 9.37615 7.14246 9.65708 7.23184C9.93801 7.32121 10.1969 7.46891 10.4168 7.66528C10.6367 7.86164 10.8126 8.10223 10.9331 8.3713C11.0535 8.64037 11.1158 8.93185 11.1158 9.22666C11.1158 9.52146 11.0535 9.81294 10.9331 10.082C10.8126 10.3511 10.6367 10.5917 10.4168 10.788C10.1969 10.9844 9.93801 11.1321 9.65708 11.2215C9.37615 11.3109 9.07951 11.3399 8.78658 11.3067V11.3067ZM25.2132 24.9867H21.2132V18.5467C21.2132 16.9333 20.6399 15.88 19.1866 15.88C18.7368 15.8833 18.2988 16.0244 17.9317 16.2842C17.5646 16.5441 17.2859 16.9102 17.1333 17.3333C17.0289 17.6467 16.9837 17.9768 16.9999 18.3067V24.9733H12.9999C12.9999 24.9733 12.9999 14.0667 12.9999 12.9733H16.9999V14.6667C17.3633 14.0361 17.8918 13.5167 18.5285 13.1643C19.1652 12.8118 19.886 12.6398 20.6132 12.6667C23.2799 12.6667 25.2132 14.3867 25.2132 18.08V24.9867Z" fill="#121212"/>
</svg>
