<svg width="1440" height="4" viewBox="0 0 1440 4" fill="none" xmlns="http://www.w3.org/2000/svg">
<path d="M273 2C273 0.895431 273.895 0 275 0H382V4H275C273.895 4 273 3.10457 273 2V2Z" fill="#075BE1"/>
<path d="M380 2C380 0.895431 380.895 0 382 0H489V4H382C380.895 4 380 3.10457 380 2V2Z" fill="#F5D95C"/>
<path d="M487 2C487 0.895431 487.895 0 489 0H596V4H489C487.895 4 487 3.10457 487 2V2Z" fill="#F55741"/>
<path d="M594 2C594 0.895431 594.895 0 596 0H703V4H596C594.895 4 594 3.10457 594 2V2Z" fill="#9ECAF1"/>
<path d="M701 2C701 0.895431 701.895 0 703 0H810V4H703C701.895 4 701 3.10457 701 2V2Z" fill="#2F2F2F"/>
<path d="M808 2C808 0.895431 808.895 0 810 0H917V4H810C808.895 4 808 3.10457 808 2V2Z" fill="#075BE1"/>
<path d="M915 2C915 0.895431 915.895 0 917 0H1024V4H917C915.895 4 915 3.10457 915 2V2Z" fill="#F55741"/>
<path d="M1022 2C1022 0.895431 1022.9 0 1024 0H1131V4H1024C1022.9 4 1022 3.10457 1022 2V2Z" fill="#F3D0C3"/>
<path d="M1129 2C1129 0.895431 1129.9 0 1131 0H1238V4H1131C1129.9 4 1129 3.10457 1129 2V2Z" fill="#075BE1"/>
<path d="M1236 2C1236 0.895431 1236.9 0 1238 0H1345V4H1238C1236.9 4 1236 3.10457 1236 2V2Z" fill="#F5D95C"/>
<path d="M1343 2C1343 0.895431 1343.9 0 1345 0H1452V4H1345C1343.9 4 1343 3.10457 1343 2V2Z" fill="#F55741"/>
<path d="M189 2C189 0.895431 188.105 0 187 0H80V4H187C188.105 4 189 3.10457 189 2V2Z" fill="#F55741"/>
<path d="M82 2C82 0.895431 81.1046 0 80 0H-27V4H80C81.1046 4 82 3.10457 82 2V2Z" fill="#9ECAF1"/>
</svg>
